<svg width="1436" height="720" viewBox="0 0 1436 720" xmlns="http://www.w3.org/2000/svg">
  <style>
    .title { font: bold 28px sans-serif; fill: #EAEAEA; }
    .subtitle { font: 18px sans-serif; fill: #CFCFCF; }
    .boxtext { font: bold 20px sans-serif; fill: #EAEAEA; }
    .boxsub { font: 15px sans-serif; fill: #D0D0D0; }
  </style>

  <rect width="1436" height="720" fill="#1B1B1B"/>

  <!-- CLIENTS -->

  <rect x="80" y="100" width="240" height="130" rx="18" fill="#4940A7" stroke="#8E86FF"/>
  <text x="200" y="150" text-anchor="middle" class="title">iPhone</text>
  <text x="200" y="185" text-anchor="middle" class="subtitle">Application Instance</text>

  <rect x="80" y="310" width="240" height="130" rx="18" fill="#4940A7" stroke="#8E86FF"/>
  <text x="200" y="360" text-anchor="middle" class="title">MacBook Air</text>
  <text x="200" y="395" text-anchor="middle" class="subtitle">Application Instance</text>

  <rect x="80" y="520" width="240" height="130" rx="18" fill="#4940A7" stroke="#8E86FF"/>
  <text x="200" y="570" text-anchor="middle" class="title">Other Device</text>
  <text x="200" y="605" text-anchor="middle" class="subtitle">Application Instance</text>

  <!-- CONNECTIONS -->

  <line x1="320" y1="165" x2="438" y2="300" stroke="#8E86FF" stroke-width="2"/>
  <line x1="320" y1="375" x2="438" y2="355" stroke="#8E86FF" stroke-width="2"/>
  <line x1="320" y1="585" x2="438" y2="410" stroke="#8E86FF" stroke-width="2"/>

  <!-- PRIMARY INSTANCE -->

  <rect x="438" y="40" width="525" height="600" rx="30"
        fill="#045C4B"
        stroke="#5BD2B8"
        stroke-width="2"/>

  <text x="700" y="90"
        text-anchor="middle"
        class="subtitle"
        fill="#8DE2C8">
    Primary Instance
  </text>

  <text x="700" y="125"
        text-anchor="middle"
        class="title">
    Mac Studio
  </text>

  <!-- AI -->

  <rect x="480" y="180" width="200" height="120" rx="16"
        fill="#5A5A5A"
        stroke="#8C8C8C"/>

  <text x="580" y="230"
        text-anchor="middle"
        class="boxtext">
    Local AI
  </text>

  <text x="580" y="260"
        text-anchor="middle"
        class="boxsub">
    LLM Inference
  </text>

  <!-- DATABASE -->

  <rect x="720" y="180" width="200" height="120" rx="16"
        fill="#5A5A5A"
        stroke="#8C8C8C"/>

  <text x="820" y="230"
        text-anchor="middle"
        class="boxtext">
    Database
  </text>

  <text x="820" y="260"
        text-anchor="middle"
        class="boxsub">
    Persistent Storage
  </text>

  <!-- REST API -->

  <rect x="480" y="350" width="200" height="120" rx="16"
        fill="#5A5A5A"
        stroke="#8C8C8C"/>

  <text x="580" y="400"
        text-anchor="middle"
        class="boxtext">
    REST API
  </text>

  <text x="580" y="430"
        text-anchor="middle"
        class="boxsub">
    Device Communication
  </text>

  <!-- MONITORING -->

  <rect x="720" y="350" width="200" height="120" rx="16"
        fill="#5A5A5A"
        stroke="#8C8C8C"/>

  <text x="820" y="400"
        text-anchor="middle"
        class="boxtext">
    Monitoring
  </text>

  <text x="820" y="430"
        text-anchor="middle"
        class="boxsub">
    Logs &amp; Metrics
  </text>

  <!-- CORE -->

  <rect x="480" y="520" width="440" height="80" rx="16"
        fill="#5A5A5A"
        stroke="#8C8C8C"/>

  <text x="700" y="555"
        text-anchor="middle"
        class="boxtext">
    Local Desktop UI &amp; Core Services
  </text>

  <text x="700" y="580"
        text-anchor="middle"
        class="boxsub">
    Extensible Modular Platform
  </text>

  <!-- EXAMPLE MODULE -->

  <rect x="1035"
        y="25"
        width="325"
        height="565"
        rx="24"
        fill="none"
        stroke="#F2A07E"
        stroke-width="2"
        stroke-dasharray="10 6"/>

  <rect x="1085"
        y="8"
        width="225"
        height="42"
        rx="21"
        fill="#1B1B1B"
        stroke="#F2A07E"/>

  <text x="1197"
        y="35"
        text-anchor="middle"
        class="subtitle"
        fill="#F2A07E">
    Example Module
  </text>

  <text x="1197"
        y="80"
        text-anchor="middle"
        class="boxtext">
    Project Idea Management
  </text>

  <!-- STEP 1 -->

  <rect x="1080" y="120"
        width="240"
        height="100"
        rx="18"
        fill="#7A2E12"
        stroke="#D17855"/>

  <text x="1200"
        y="172"
        text-anchor="middle"
        class="boxtext">
    Submit Idea
  </text>

  <text x="1200"
        y="200"
        text-anchor="middle"
        class="boxsub">
    From Any Device
  </text>

  <line x1="1200"
        y1="220"
        x2="1200"
        y2="285"
        stroke="#D17855"
        stroke-width="2"/>

  <!-- STEP 2 -->

  <rect x="1080" y="285"
        width="240"
        height="100"
        rx="18"
        fill="#7A2E12"
        stroke="#D17855"/>

  <text x="1200"
        y="337"
        text-anchor="middle"
        class="boxtext">
    AI Processing
  </text>

  <text x="1200"
        y="365"
        text-anchor="middle"
        class="boxsub">
    Reformulate &amp; Structure
  </text>

  <line x1="1200"
        y1="385"
        x2="1200"
        y2="450"
        stroke="#D17855"
        stroke-width="2"/>

  <!-- STEP 3 -->

  <rect x="1080" y="450"
        width="240"
        height="100"
        rx="18"
        fill="#7A2E12"
        stroke="#D17855"/>

  <text x="1200"
        y="502"
        text-anchor="middle"
        class="boxtext">
    Store &amp; Index
  </text>

  <text x="1200"
        y="530"
        text-anchor="middle"
        class="boxsub">
    Knowledge Base
  </text>

  <text x="1197"
        y="580"
        text-anchor="middle"
        class="boxsub">
    One of many possible modules
  </text>

  <!-- LEGEND -->

  <rect x="250" y="670" width="22" height="22" rx="4" fill="#5BD2B8"/>
  <text x="285" y="687" class="subtitle">
    Primary Instance (Mac Studio)
  </text>

  <rect x="620" y="670" width="22" height="22" rx="4" fill="#A89DFF"/>
  <text x="655" y="687" class="subtitle">
    Application Instances
  </text>

  <rect x="980" y="670" width="22" height="22" rx="4" fill="#F2A07E"/>
  <text x="1015" y="687" class="subtitle">
    Example Module
  </text>

</svg>